# xmcd CD database file
#
# Track frame offsets:
#	150
#	20428
#	38249
#	54926
#	71618
#	88982
#	107342
#	122076
#	140137
#	157870
#	175010
#	190914
#	207756
#	222447
#
# Disc length: 3190 seconds
#
# Revision: 0
# Processed by: cddbd v1.5.1PL2 Copyright (c) Steve Scherf et al.
# Submitted via: CDex 1.51
#
DISCID=c10c740e
DTITLE=Carrie Underwood - Some Hearts
DYEAR=1900
DGENRE=Country
TTITLE0=1. Wasted
TTITLE1=2. Don't Forget To Remember Me
TTITLE2=3. Some Hearts
TTITLE3=4. Jesus, Take The Wheel
TTITLE4=5. The Night Before (Life Goes On)
TTITLE5=6. Lessons Learned
TTITLE6=7. Before He Cheats
TTITLE7=8. Starts With Goodbye
TTITLE8=9. I Just Can't Live A Lie
TTITLE9=10. We're Young And Beautiful
TTITLE10=11. That's Where It Is
TTITLE11=12. Whenever You Remember
TTITLE12=13. I Ain't In Checotah Anymore
TTITLE13=14. Inside Your Heaven
EXTD=
EXTT0=
EXTT1=
EXTT2=
EXTT3=
EXTT4=
EXTT5=
EXTT6=
EXTT7=
EXTT8=
EXTT9=
EXTT10=
EXTT11=
EXTT12=
EXTT13=
PLAYORDER=
